<?xml version="1.0" standalone="no"?>
<!DOCTYPE svg PUBLIC "-//W3C//DTD SVG 20010904//EN"
 "http://www.w3.org/TR/2001/REC-SVG-20010904/DTD/svg10.dtd">
<svg version="1.0" xmlns="http://www.w3.org/2000/svg"
 width="511.000000pt" height="509.000000pt" viewBox="0 0 511.000000 509.000000"
 preserveAspectRatio="xMidYMid meet">

<g transform="translate(0.000000,509.000000) scale(0.100000,-0.100000)"
fill="#000000" stroke="none">
<path d="M2275 4926 c-199 -50 -355 -240 -355 -435 0 -82 -31 -139 -92 -169
-64 -32 -116 -24 -172 28 -113 103 -206 141 -341 141 -94 1 -182 -24 -253 -70
-26 -16 -122 -106 -213 -198 -138 -140 -171 -179 -198 -235 -81 -172 -51 -363
81 -521 67 -81 78 -118 53 -183 -27 -71 -66 -94 -177 -104 -51 -5 -113 -16
-138 -24 -144 -53 -267 -194 -299 -344 -17 -82 -14 -475 4 -545 53 -205 237
-357 431 -357 56 0 115 -19 146 -47 9 -8 25 -35 34 -59 24 -63 13 -104 -46
-168 -143 -159 -175 -353 -88 -536 25 -53 61 -95 192 -229 89 -90 187 -181
218 -201 81 -53 164 -73 280 -68 113 5 187 35 291 121 98 81 164 87 231 24 37
-36 56 -88 56 -159 0 -56 29 -152 63 -210 57 -98 190 -192 305 -217 82 -17
475 -14 545 4 206 54 357 237 357 434 0 82 31 139 92 169 66 33 114 24 179
-34 69 -61 116 -90 191 -115 116 -39 270 -24 378 38 55 32 360 331 400 393 84
130 96 302 32 444 -15 34 -53 92 -84 129 -67 81 -78 118 -53 183 27 71 66 94
177 104 51 5 113 16 138 24 142 52 255 179 295 333 18 70 21 463 4 545 -43
204 -239 368 -438 368 -39 0 -71 7 -101 23 -81 40 -114 151 -63 213 10 12 39
48 66 80 112 138 133 329 55 494 -25 53 -61 95 -192 229 -89 90 -187 181 -218
201 -81 53 -164 73 -280 68 -113 -5 -187 -35 -291 -121 -40 -33 -83 -59 -102
-63 -105 -19 -184 61 -185 188 -1 197 -151 380 -357 433 -73 19 -482 20 -558
1z m508 -320 c61 -26 78 -56 88 -153 12 -117 31 -177 77 -249 161 -248 492
-293 715 -95 32 28 70 54 85 57 15 3 32 7 39 9 6 2 29 -1 50 -7 29 -8 71 -42
176 -147 76 -75 145 -149 154 -165 17 -33 19 -105 3 -135 -6 -12 -31 -44 -55
-71 -210 -236 -136 -601 148 -740 47 -22 87 -32 161 -41 113 -12 133 -18 163
-50 38 -42 43 -73 43 -275 0 -210 -5 -239 -53 -283 -21 -19 -43 -25 -114 -32
-117 -12 -177 -31 -249 -77 -247 -160 -293 -488 -100 -711 26 -29 51 -62 57
-73 15 -29 13 -101 -4 -134 -9 -16 -78 -90 -154 -165 -148 -147 -178 -165
-248 -149 -38 9 -45 13 -115 74 -213 185 -545 134 -702 -109 -46 -71 -65 -131
-77 -248 -7 -71 -13 -93 -32 -114 -44 -48 -73 -53 -283 -53 -202 0 -233 5
-275 43 -32 30 -38 50 -51 163 -13 125 -48 202 -126 285 -106 110 -264 165
-408 141 -91 -16 -179 -57 -244 -115 -28 -25 -61 -51 -73 -57 -31 -17 -99 -15
-134 3 -17 8 -91 78 -166 154 -105 105 -139 147 -147 176 -6 21 -9 44 -7 50 2
7 6 24 9 39 3 15 29 53 57 85 173 195 166 467 -15 649 -94 94 -169 127 -330
143 -70 7 -92 13 -113 32 -48 44 -53 73 -53 283 0 206 5 234 47 278 29 30 41
34 166 47 381 42 559 494 305 776 -25 28 -51 61 -57 74 -18 33 -17 101 2 136
8 17 78 91 154 166 105 105 147 139 176 147 21 6 44 9 50 7 7 -2 24 -6 39 -9
15 -3 53 -29 85 -57 200 -178 492 -163 668 33 68 75 102 157 115 269 13 114
16 127 44 158 40 45 68 50 279 51 146 0 206 -4 230 -14z"/>
<path d="M2362 3645 c-337 -61 -632 -274 -787 -568 -180 -342 -180 -722 0
-1064 133 -251 352 -433 635 -527 509 -169 1071 54 1323 524 147 275 177 581
85 870 -151 472 -579 783 -1072 779 -61 0 -144 -7 -184 -14z m356 -321 c369
-76 632 -400 632 -779 0 -442 -353 -795 -795 -795 -379 0 -703 263 -779 632
-87 422 174 835 593 938 96 23 246 25 349 4z"/>
</g>
</svg>
